<svg viewBox="0 0 440 440" xmlns="http://www.w3.org/2000/svg">
  <defs>
    <linearGradient id="gradient" x1="0%" y1="0%" x2="100%" y2="0%">
      <stop offset="0%" stop-color="#8A3FFC" stop-opacity="1" />
      <stop offset="100%" stop-color="#A7F0BA" stop-opacity="1" />
    </linearGradient>
  </defs><path d="M220,438.1137936668736C251.9478033508112,436.3735437121849,279.5881901900297,417.3495108786268,307.5473065965715,401.7938553600592C334.3462008718063,386.88371436838867,360.4636716345079,371.15775139363706,381.10693000776223,348.47848944573036C402.48065977878787,324.99671115684856,426.54359165971647,299.43133207701396,429.49713772325623,267.8163545887478C432.4495128664676,236.21391071906257,408.05290295990653,209.33703065416324,396.8813437453523,179.62798754876238C387.0686422495308,153.53261750050666,383.15527150841814,125.46027161256328,367.3345793679028,102.50459369191508C350.9958873651818,78.79730276381304,330.6827577817493,56.45587518855906,304.2024615460817,45.151786955502104C278.0043712936528,33.96816872421689,248.35833129255604,42.29609906872668,220,39.609410415536594C188.77073182668676,36.650727142424,156.92452878836008,16.91552755419197,127.7467973152928,28.43425072288089C98.77429399132029,39.871954356585505,81.99142500285357,71.17117836297012,68.69750757761746,99.3402886215683C56.57708303745977,125.0228293152989,63.698160409040874,155.29639384552584,55.10269842267189,182.36326697043023C45.589515038074445,212.3200195095245,10.257090946758646,235.68153760237422,15.562307976613738,266.6615691237211C20.781446364416055,297.1389408991797,61.660666538152725,306.7260983757487,80.58673944669036,331.1783653485934C99.84622609599896,356.06139901250737,102.76892332138817,392.4378752708138,127.73584867156333,411.58848437008663C153.44939701911767,431.311782535666,187.64125807599737,439.8764281287387,220,438.1137936668736" fill="url(#gradient)" />
</svg>